<svg width="68" height="17" viewBox="0 0 68 17" fill="none" xmlns="http://www.w3.org/2000/svg">
<path d="M8.21707 6.81913C7.28136 2.99186 5.33109 1.97299 4.8336 1.25276C4.62845 0.935478 4.44672 0.605679 4.28965 0.265625C4.26337 0.605625 4.21509 0.819825 3.90339 1.07766C3.27754 1.59503 0.619542 3.60329 0.395851 7.95189C0.187441 12.0064 3.61064 14.5065 4.06291 14.7649C4.41066 14.9236 4.83421 14.7683 5.04079 14.6227C6.69096 13.5727 8.94559 10.7733 8.2189 6.81913" fill="#10AA50"/>
<path d="M4.42921 12.6055C4.34303 13.609 4.2813 14.1921 4.0625 14.7656C4.0625 14.7656 4.20613 15.721 4.30697 16.7331H4.6639C4.74904 16.0204 4.87903 15.3129 5.05322 14.6143C4.59117 14.4035 4.44693 13.4861 4.42921 12.6055Z" fill="#B8C4C2"/>
<path d="M5.05505 14.6151C4.58811 14.4151 4.45304 13.4784 4.43226 12.6057C4.54774 11.1662 4.5814 9.72204 4.53311 8.27923C4.50866 7.52216 4.54472 1.2673 4.33203 0.351562C4.47752 0.661712 4.64515 0.962524 4.83381 1.252C5.3313 1.9728 7.28218 2.99166 8.21727 6.81893C8.9458 10.7663 6.70339 13.5583 5.05505 14.6151Z" fill="#12924F"/>
<path d="M66.5998 13.2318C66.3998 13.2317 66.2044 13.1769 66.038 13.0742C65.8715 12.9715 65.7416 12.8254 65.6644 12.6544C65.5873 12.4833 65.5664 12.295 65.6044 12.113C65.6424 11.931 65.7376 11.7635 65.878 11.6315C66.0184 11.4995 66.1977 11.409 66.3935 11.3712C66.5892 11.3335 66.7927 11.3503 66.9782 11.4194C67.1637 11.4886 67.323 11.6071 67.436 11.7599C67.5491 11.9128 67.611 12.0933 67.6137 12.2786C67.6174 12.4036 67.5937 12.528 67.5442 12.6443C67.4947 12.7606 67.4204 12.8664 67.3257 12.9554C67.231 13.0445 67.1179 13.1148 66.9932 13.1623C66.8684 13.2098 66.7346 13.2334 66.5998 13.2318ZM66.5998 11.4366C66.4171 11.4354 66.2382 11.4846 66.0857 11.5779C65.9331 11.6711 65.8139 11.8042 65.743 11.9603C65.6722 12.1164 65.6529 12.2885 65.6876 12.4548C65.7223 12.6211 65.8095 12.7741 65.9381 12.8944C66.0667 13.0148 66.2309 13.097 66.4099 13.1307C66.5889 13.1645 66.7747 13.1482 66.9437 13.0839C67.1128 13.0197 67.2574 12.9104 67.3594 12.7698C67.4614 12.6293 67.5161 12.4639 67.5165 12.2945C67.5189 12.1819 67.4969 12.07 67.4518 11.9654C67.4067 11.8609 67.3394 11.7658 67.2539 11.6858C67.1684 11.6058 67.0664 11.5425 66.9541 11.4997C66.8417 11.4569 66.7212 11.4354 66.5998 11.4366ZM66.8442 12.8861L66.5827 12.3631H66.3718V12.8861H66.2184V11.6961H66.5967C66.8785 11.6961 66.9958 11.8094 66.9958 12.0287C66.9958 12.2033 66.9072 12.3121 66.7422 12.3455L67.0123 12.8844L66.8442 12.8861ZM66.3779 12.2401H66.5998C66.7795 12.2401 66.8479 12.1834 66.8479 12.0316C66.8479 11.8797 66.7825 11.8281 66.5802 11.8281H66.3779V12.2401Z" fill="white"/>
<path d="M51.5102 12.3743C51.7847 12.5777 52.3329 12.6616 52.8163 12.6616C53.4428 12.6616 54.057 12.5539 54.6572 12.0512C55.2684 11.5361 55.6889 10.7479 55.6889 9.48935C55.6889 8.28008 55.1926 7.29862 54.1744 6.72402C53.5999 6.38912 52.8554 6.25708 52.0065 6.25708C51.7621 6.25708 51.5103 6.26898 51.3672 6.32905C51.3086 6.37196 51.2671 6.43179 51.2493 6.49905C51.2236 6.71438 51.2236 8.35432 51.2236 9.32388C51.2236 10.3178 51.2236 11.7039 51.2493 11.8739C51.2627 12.0178 51.341 12.2706 51.5102 12.3765V12.3743ZM48.9042 5.71875C49.1261 5.71875 49.9695 5.75445 50.3619 5.75445C51.0953 5.75445 51.6019 5.71875 52.9728 5.71875C54.1218 5.71875 55.0887 6.00605 55.7799 6.55628C56.616 7.22722 57.0634 8.16052 57.0634 9.29782C57.0634 10.9139 56.2689 11.8478 55.4701 12.3743C54.6755 12.9251 53.642 13.2362 52.1697 13.2362C51.3862 13.2362 50.041 13.2124 48.9183 13.2004H48.895C48.8425 13.1047 48.991 12.7312 49.0827 12.7216C49.3882 12.6899 49.4689 12.6786 49.6095 12.6247C49.8466 12.5346 49.9022 12.4224 49.9285 12.0275C49.9676 11.2851 49.9548 10.3994 49.9548 9.39358C49.9548 8.67562 49.9676 7.27482 49.942 6.83168C49.9022 6.46108 49.7336 6.36532 49.3919 6.29335C49.1496 6.24563 48.9048 6.20969 48.6585 6.18568C48.6328 6.11372 48.8333 5.78902 48.8987 5.71875" fill="white"/>
<path d="M60.2987 6.32673C60.2468 6.33863 60.1814 6.45877 60.1814 6.51827C60.1679 6.9495 60.1551 8.07433 60.1551 8.85237C60.1584 8.86724 60.1664 8.88087 60.178 8.89156C60.1896 8.90225 60.2044 8.90951 60.2205 8.91243C60.3898 8.92433 60.8078 8.9368 61.1605 8.9368C61.6568 8.9368 61.944 8.87673 62.1005 8.80477C62.5185 8.61323 62.7116 8.1939 62.7116 7.73943C62.7116 6.6979 61.9281 6.30293 60.7663 6.30293C60.6092 6.30109 60.4522 6.30905 60.2963 6.32673H60.2987ZM63.2605 11.1151C63.2605 10.0616 62.4244 9.46323 60.8965 9.46323C60.8317 9.46323 60.3464 9.45133 60.2309 9.47513C60.1918 9.48703 60.1527 9.51083 60.1527 9.5352C60.1527 10.2894 60.1392 11.4981 60.1789 11.977C60.2052 12.1804 60.3623 12.4677 60.5573 12.5516C60.7663 12.6592 61.2363 12.683 61.5626 12.683C62.4635 12.683 63.2605 12.2167 63.2605 11.1151ZM57.9396 5.74023C58.0575 5.74023 58.4047 5.77593 59.2927 5.77593C60.1282 5.77593 60.8072 5.75213 61.6152 5.75213C62.6206 5.75213 64.0043 6.0876 64.0043 7.47593C64.0043 8.15593 63.4823 8.709 62.8033 8.9725C62.7642 8.9844 62.7642 9.0082 62.8033 9.0201C63.7696 9.24677 64.6179 9.79813 64.6179 10.8516C64.6179 11.8812 63.9261 12.5278 62.9207 12.9346C62.3095 13.1862 61.5498 13.2695 60.7816 13.2695C60.1942 13.2695 58.6198 13.2129 57.7446 13.2219C57.6529 13.1862 57.8284 12.8026 57.9066 12.7431C58.1071 12.7374 58.306 12.7084 58.4988 12.657C58.8117 12.5856 58.849 12.4921 58.8881 12.0608C58.9144 11.6897 58.9144 10.3608 58.9144 9.41507C58.9144 8.12193 58.9279 7.2487 58.9144 6.81747C58.9016 6.48257 58.7708 6.37433 58.5226 6.31483C58.3271 6.27857 58.0007 6.24287 57.7397 6.20717C57.6743 6.1471 57.8754 5.78783 57.9402 5.74023" fill="white"/>
<path d="M11.1067 13.2309C11.0731 13.1542 11.0595 13.0713 11.067 12.9889C11.0641 12.9327 11.0778 12.8769 11.1067 12.8274C11.2756 12.8048 11.4429 12.7732 11.6079 12.7328C11.8389 12.6795 11.9257 12.5628 11.9391 12.2896C11.977 11.6442 11.9795 10.4332 11.966 9.5821V9.55717C11.966 9.46537 11.966 9.3407 11.8438 9.25287C11.629 9.1279 11.3957 9.03246 11.1513 8.96953C11.0419 8.9395 10.9814 8.88623 10.9845 8.8239C10.9875 8.76157 11.0566 8.6879 11.199 8.66183C11.5773 8.62613 12.5687 8.40683 12.958 8.24023C12.9981 8.28867 13.0166 8.3495 13.0099 8.41023C13.0099 8.44763 13.0038 8.4873 12.9995 8.5281C12.9885 8.64823 12.9763 8.7848 12.9763 8.9208C12.9787 8.93732 12.986 8.9529 12.9974 8.96577C13.0089 8.97864 13.0239 8.9883 13.041 8.99366C13.058 8.99902 13.0763 8.99987 13.0938 8.9961C13.1113 8.99234 13.1274 8.98412 13.1401 8.97237C13.8815 8.43347 14.5458 8.24137 14.8862 8.24137C15.4467 8.24137 15.8831 8.48957 16.221 9.0007C16.2288 9.01304 16.2398 9.02333 16.2531 9.03057C16.2664 9.03781 16.2814 9.04177 16.2968 9.04207C16.3108 9.04195 16.3246 9.03869 16.3369 9.03257C16.3493 9.02645 16.3598 9.01766 16.3677 9.00694C17.0492 8.52754 17.7245 8.24137 18.1768 8.24137C19.2451 8.24137 19.8838 8.98313 19.8838 10.2247C19.8838 10.5817 19.8801 11.0345 19.8765 11.4566C19.8734 11.8272 19.8704 12.1746 19.8704 12.4149C19.8704 12.4715 19.9547 12.6347 20.0812 12.667C20.2377 12.7379 20.4632 12.7741 20.7486 12.8195H20.7596C20.781 12.8909 20.7358 13.168 20.6924 13.2246C20.6215 13.2246 20.5237 13.219 20.4015 13.2133C20.1796 13.2031 19.8753 13.1889 19.5214 13.1889C18.8112 13.1889 18.4402 13.2014 18.0857 13.2229C18.0588 13.1408 18.0497 12.8756 18.0821 12.82C18.2289 12.7988 18.3742 12.7694 18.5172 12.7322C18.7434 12.6631 18.8088 12.5679 18.8228 12.2896C18.8283 12.0919 18.8693 10.3494 18.7965 9.9357C18.7293 9.50674 18.3809 9.00467 17.6188 9.00467C17.3358 9.00467 16.8793 9.11403 16.4441 9.42003C16.4171 9.4484 16.402 9.48478 16.4013 9.5226V9.5311C16.4527 9.75437 16.4527 10.015 16.4527 10.4089C16.4527 10.6355 16.4527 10.8718 16.4496 11.1081C16.4466 11.5887 16.4441 12.042 16.4527 12.3848C16.4527 12.6183 16.6049 12.6744 16.7277 12.7192C16.7943 12.7328 16.8469 12.7447 16.9001 12.756C17.0021 12.7792 17.1085 12.803 17.2668 12.8263C17.2902 12.9258 17.2881 13.0291 17.2606 13.1277C17.2542 13.1648 17.2385 13.1999 17.2148 13.2303C16.82 13.2178 16.4148 13.2071 15.8299 13.2071C15.6526 13.2071 15.3636 13.2139 15.1081 13.2201C14.9009 13.2252 14.7053 13.2303 14.5941 13.2309C14.564 13.165 14.5506 13.0937 14.555 13.0223C14.5487 12.9551 14.5629 12.8876 14.5959 12.8274L14.753 12.8008C14.8899 12.7781 15.0085 12.7588 15.1197 12.7328C15.3128 12.6761 15.3856 12.5786 15.3996 12.3503C15.4375 11.8176 15.4668 10.2825 15.3856 9.8983C15.2474 9.28177 14.8691 8.96897 14.2604 8.96897C13.9041 8.96897 13.4536 9.1282 13.0857 9.38377C13.0503 9.41572 13.0224 9.45411 13.0038 9.49653C12.9852 9.53895 12.9763 9.58449 12.9775 9.63027C12.9775 9.8133 12.9775 10.0309 12.9775 10.2644C12.9775 11.035 12.972 11.9944 12.9922 12.4092C13.0044 12.5373 13.0533 12.6891 13.3118 12.7447C13.3687 12.76 13.4665 12.7747 13.5801 12.7923C13.6455 12.8025 13.7171 12.8132 13.791 12.8257C13.8145 12.9614 13.8026 13.1003 13.7562 13.2309C13.6425 13.2309 13.5025 13.2241 13.3424 13.2178C13.0979 13.2076 12.7923 13.1952 12.447 13.1952C12.0388 13.1952 11.7546 13.2076 11.5266 13.2178C11.3732 13.2246 11.2406 13.2303 11.1079 13.2309" fill="white"/>
<path d="M24.2144 8.75496C23.9938 8.75071 23.7768 8.80732 23.591 8.91759C23.1375 9.17316 22.9064 9.68373 22.9064 10.434C22.9064 11.8382 23.6649 12.8191 24.751 12.8191C25.0422 12.8277 25.3262 12.7344 25.5467 12.5579C25.8804 12.3057 26.0577 11.79 26.0577 11.0681C26.0577 9.68486 25.3163 8.75496 24.2131 8.75496H24.2144ZM24.4222 13.3399C22.4603 13.3399 21.7617 12.0054 21.7617 10.757C21.7617 9.88489 22.1461 9.20319 22.9046 8.73003C23.4359 8.4251 24.0456 8.25797 24.6703 8.24609C26.1671 8.24609 27.2128 9.24399 27.2128 10.6737C27.2128 11.645 26.7954 12.4122 26.0051 12.8916C25.6256 13.107 24.9661 13.3399 24.4222 13.3399Z" fill="white"/>
<path d="M44.1897 8.75496C43.9687 8.75032 43.7512 8.80694 43.5651 8.91759C43.1116 9.17316 42.8806 9.68373 42.8806 10.434C42.8806 11.8382 43.639 12.8191 44.7251 12.8191C45.0171 12.8282 45.3022 12.7349 45.5233 12.5579C45.857 12.3057 46.0336 11.79 46.0336 11.0681C46.0336 9.68486 45.2929 8.75496 44.1897 8.75496ZM44.3987 13.3399C42.4369 13.3399 41.7383 12.0054 41.7383 10.7576C41.7383 9.88433 42.1227 9.20319 42.8818 8.73003C43.4127 8.42492 44.0224 8.25777 44.6469 8.24609C46.1436 8.24609 47.1894 9.24456 47.1894 10.6731C47.1894 11.6455 46.7719 12.4122 45.9817 12.8911C45.6021 13.107 44.9427 13.3399 44.3987 13.3399Z" fill="white"/>
<path d="M37.583 8.70603C36.9785 8.70603 36.5874 9.1486 36.5874 9.8337C36.5874 10.5188 36.9241 11.3331 37.8709 11.3331C38.0334 11.3331 38.328 11.2662 38.4741 11.1172C38.6941 10.9296 38.8408 10.542 38.8408 10.1329C38.8408 9.23927 38.3714 8.70603 37.586 8.70603H37.583ZM37.5078 13.4343C37.337 13.4326 37.1687 13.4716 37.0189 13.5476C36.5403 13.831 36.3185 14.1143 36.3185 14.4435C36.3185 14.7518 36.4474 14.9972 36.7249 15.2148C37.061 15.4788 37.5145 15.6075 38.1104 15.6075C39.2833 15.6075 39.8089 15.0227 39.8089 14.4435C39.8089 14.0401 39.5907 13.7698 39.1415 13.6168C38.7956 13.4995 38.2174 13.4349 37.5096 13.4349L37.5078 13.4343ZM37.5879 16.2115C36.8838 16.2115 36.3765 16.0738 35.9432 15.7644C35.5215 15.463 35.332 15.0153 35.332 14.7059C35.3366 14.5065 35.4186 14.3154 35.5631 14.1676C35.6853 14.0384 35.9695 13.7964 36.6265 13.3776C36.6367 13.3736 36.6454 13.3669 36.6515 13.3583C36.6575 13.3498 36.6608 13.3397 36.6607 13.3295C36.6609 13.318 36.6569 13.3068 36.6494 13.2978C36.6418 13.2887 36.6312 13.2823 36.6192 13.2796C36.0783 13.0875 35.9151 12.7696 35.8656 12.5996C35.8656 12.5934 35.8656 12.5837 35.8601 12.573C35.8448 12.5061 35.8301 12.4426 35.9285 12.3775C36.0043 12.3276 36.1253 12.2607 36.2549 12.1899C36.4378 12.096 36.6133 11.9902 36.7799 11.8731C36.7889 11.8642 36.7955 11.8535 36.7993 11.8418C36.8031 11.8302 36.804 11.8178 36.8019 11.8058C36.7997 11.7938 36.7947 11.7823 36.7871 11.7724C36.7794 11.7625 36.7695 11.7543 36.7579 11.7485C35.9573 11.4991 35.5539 10.9478 35.5539 10.1051C35.5514 9.84238 35.6174 9.58294 35.7461 9.34885C35.8748 9.11476 36.0626 8.91291 36.2934 8.76043C36.6155 8.52413 37.4241 8.24023 37.9479 8.24023H37.9784C38.5169 8.25213 38.8206 8.35697 39.2411 8.5009C39.4803 8.58109 39.7337 8.6184 39.988 8.61083C40.4335 8.61083 40.6285 8.47993 40.7959 8.3275C40.8231 8.39616 40.8376 8.46858 40.8387 8.5417C40.849 8.71593 40.7979 8.88854 40.6933 9.03357C40.6022 9.15087 40.3877 9.23587 40.1915 9.23587C40.1713 9.23587 40.1518 9.23587 40.1304 9.23303C40.0271 9.2263 39.9248 9.21055 39.8248 9.186L39.7747 9.20243C39.7588 9.22397 39.7692 9.24777 39.782 9.27837C39.7851 9.28435 39.7876 9.29062 39.7893 9.29707C39.8251 9.44831 39.8494 9.60168 39.8621 9.75607C39.8621 10.6372 39.4874 11.0209 39.0822 11.3053C38.6904 11.5779 38.2252 11.7449 37.7376 11.7881C37.7272 11.7881 37.6765 11.7921 37.5812 11.8C37.52 11.8051 37.4406 11.8119 37.429 11.8119H37.4174C37.3294 11.8346 37.0995 11.936 37.0995 12.1247C37.0995 12.2811 37.2035 12.4755 37.7003 12.5106L38.0218 12.5316C38.677 12.5741 39.4954 12.6268 39.8804 12.7475C40.1358 12.8308 40.3564 12.9866 40.5108 13.1928C40.6652 13.399 40.7455 13.6452 40.7403 13.8961C40.7403 14.6866 40.134 15.4301 39.1189 15.8846C38.6401 16.0966 38.116 16.2056 37.5854 16.2036" fill="white"/>
<path d="M34.5846 12.8106C34.2973 12.7749 34.0877 12.7387 33.8402 12.631C33.7916 12.5844 33.7596 12.525 33.7485 12.461C33.7222 12.0898 33.7222 11.0126 33.7222 10.3077C33.7222 9.73251 33.6183 9.23101 33.3555 8.87118C33.042 8.46374 32.5982 8.22461 32.0237 8.22461C31.5146 8.22461 30.8356 8.54761 30.2746 8.99074C30.2611 9.00264 30.1749 9.07858 30.1768 8.96071C30.1786 8.84284 30.1982 8.60371 30.2104 8.45071C30.2158 8.41006 30.2109 8.3688 30.196 8.33022C30.1812 8.29165 30.1568 8.25684 30.1248 8.22858C29.7581 8.39858 28.7295 8.62524 28.3487 8.65981C28.0713 8.70968 28.001 8.95731 28.2974 9.04288H28.3017C28.539 9.10354 28.7654 9.19593 28.974 9.31714C29.0913 9.40101 29.0785 9.52058 29.0785 9.61634C29.0913 10.4182 29.0913 11.6512 29.0522 12.3216C29.0394 12.5851 28.9605 12.6809 28.7515 12.729L28.7711 12.7228C28.6119 12.7598 28.4504 12.7878 28.2876 12.8067C28.2222 12.8662 28.2222 13.2135 28.2876 13.2855C28.4184 13.2855 29.0822 13.2498 29.6322 13.2498C30.3888 13.2498 30.7806 13.2855 30.9768 13.2855C31.0556 13.2016 31.0813 12.8786 31.0294 12.8067C30.8486 12.7991 30.669 12.775 30.4934 12.7347C30.2849 12.6871 30.2324 12.5908 30.2196 12.376C30.1939 11.8127 30.1939 10.6159 30.1939 9.80164C30.1939 9.57498 30.2587 9.46674 30.3369 9.40498C30.5979 9.18964 31.0294 9.04628 31.4077 9.04628C31.7744 9.04628 32.0189 9.15394 32.2022 9.29731C32.4158 9.47009 32.5497 9.71228 32.5762 9.97391C32.6282 10.4272 32.6147 11.339 32.6147 12.1272C32.6147 12.5585 32.5762 12.6667 32.4063 12.7143C32.3281 12.75 32.1191 12.7863 31.8709 12.8101C31.7927 12.882 31.8184 13.2169 31.8709 13.2889C32.2101 13.2889 32.6044 13.2532 33.1764 13.2532C33.8945 13.2532 34.3517 13.2889 34.5344 13.2889C34.6127 13.205 34.639 12.8922 34.587 12.8101" fill="white"/>
</svg>
