<svg width="65" height="34" viewBox="0 0 65 34" fill="none" xmlns="http://www.w3.org/2000/svg">
<path d="M0 30.8852H2.14138V22.3744L5.45645 29.7965C5.84746 30.6913 6.3832 31.0127 7.43311 31.0127C8.48301 31.0127 8.9978 30.6948 9.38945 29.7965L12.7048 22.3744V30.8884H14.8465V22.3884C14.8465 21.5592 14.5165 21.1582 13.8373 20.9511C12.2107 20.4398 11.1192 20.8821 10.6253 21.9877L7.37217 29.3127L4.22119 21.9845C3.74766 20.8789 2.63586 20.4366 1.00928 20.9479C0.329443 21.1553 0 21.5563 0 22.3852V30.8852ZM16.6264 23.9555H18.7672V28.6465C18.7472 28.9015 18.8484 29.4997 20.0215 29.5179C20.62 29.5275 24.6407 29.5179 24.6781 29.5179V23.9322H26.8236C26.8331 23.9322 26.8214 31.5483 26.8217 31.5809C26.8335 33.4592 24.5067 33.8673 23.4346 33.8989H16.6731V32.4481L23.4467 32.4478C24.8247 32.3008 24.6622 31.6116 24.6622 31.3793V30.8137H20.111C17.9934 30.7945 16.6451 29.8636 16.6283 28.7931C16.6267 28.6973 16.674 24.0015 16.6271 23.9552L16.6264 23.9555Z" fill="#00618A"/>
<path d="M28.4746 30.884H34.6312C35.3517 30.884 36.0521 30.7322 36.6085 30.4692C37.5353 30.041 37.9882 29.4604 37.9882 28.7002V27.1248C37.9882 26.5026 37.4734 25.9223 36.4647 25.5353C35.9293 25.3276 35.2704 25.2174 34.6322 25.2174H32.0375C31.173 25.2174 30.761 24.9547 30.6582 24.3744C30.6376 24.3054 30.6376 24.2466 30.6376 24.1808V23.1998C30.6376 23.1445 30.6376 23.0889 30.6582 23.0199C30.761 22.5776 30.9876 22.453 31.7494 22.3808C31.8113 22.3808 31.8935 22.3667 31.9557 22.3667H38.071V20.9297H32.0585C31.1936 20.9297 30.7407 20.985 30.3288 21.1093C29.051 21.5103 28.4949 22.1494 28.4949 23.255V24.5128C28.4949 25.4804 29.5867 26.3096 31.4186 26.5029C31.6249 26.5167 31.8306 26.5304 32.0363 26.5304H34.2602C34.3427 26.5304 34.4252 26.5304 34.4868 26.5445C35.166 26.5998 35.4548 26.7241 35.6605 26.9727C35.7874 27.1005 35.8255 27.2219 35.8255 27.3561V28.6139C35.8255 28.766 35.7227 28.9596 35.5167 29.1252C35.3313 29.2913 35.0225 29.4016 34.6106 29.4294C34.5281 29.4294 34.4665 29.4431 34.3843 29.4431H28.4746V30.8804V30.884ZM51.3465 28.3825C51.3465 29.8614 52.4376 30.6906 54.6409 30.8565C54.8464 30.8725 55.0524 30.8817 55.2585 30.884H60.8388V29.4466H55.2173C53.9614 29.4466 53.4875 29.1287 53.4875 28.3685V20.9326H51.3462V28.3819L51.3465 28.3825ZM39.3542 28.4573V23.3333C39.3542 22.0315 40.2619 21.2419 42.057 20.9926C42.2484 20.9651 42.4416 20.9512 42.635 20.9511H46.6997C46.8999 20.9512 47.0999 20.9651 47.2983 20.9926C49.0934 21.2419 50.0011 22.0312 50.0011 23.3333V28.4573C50.0011 29.5134 49.6155 30.0787 48.7268 30.4471L50.8361 32.3644H48.3498L46.6432 30.8133L44.9252 30.9229H42.635C42.243 30.9229 41.8304 30.8673 41.3762 30.7427C40.0115 30.3688 39.3545 29.6486 39.3545 28.4573H39.3542ZM41.6657 28.3295C41.6657 28.3988 41.6863 28.4678 41.7069 28.5512C41.8339 29.1469 42.3877 29.4792 43.2304 29.4792H45.1759L43.3891 27.855H45.8754L47.4306 29.2715C47.7178 29.1175 47.9067 28.8817 47.9702 28.579C47.9908 28.51 47.9908 28.4407 47.9908 28.3713V23.4583C47.9908 23.403 47.9908 23.3305 47.9702 23.2643C47.8432 22.7105 47.2891 22.3919 46.4639 22.3919H43.2342C42.282 22.3919 41.6663 22.8074 41.6663 23.4583V28.3333L41.6657 28.3295Z" fill="#E48E00"/>
<path d="M62.7221 18.5481C61.4059 18.5123 60.4001 18.6354 59.5406 19.0003C59.2962 19.1041 58.9068 19.1067 58.8668 19.4151C59.0011 19.5566 59.0223 19.7682 59.1287 19.9423C59.334 20.2769 59.6809 20.7252 59.9897 20.9598C60.3274 21.2164 60.6753 21.4912 61.038 21.7139C61.6823 22.1095 62.4015 22.3354 63.0217 22.7313C63.3873 22.9646 63.7504 23.2586 64.1071 23.5225C64.2833 23.6529 64.4023 23.8555 64.6308 23.937V23.8993C64.5102 23.7449 64.4794 23.5328 64.369 23.372L63.8824 22.8822C63.4063 22.2431 62.8027 21.688 62.1606 21.2237C61.6487 20.8537 60.5026 20.3539 60.289 19.7538L60.2516 19.7161C60.6146 19.6745 61.0396 19.5426 61.3751 19.4524C61.9378 19.3007 62.4409 19.3396 63.0223 19.1888L63.8085 18.9626V18.8117C63.5146 18.5082 63.3051 18.1065 62.9849 17.832C62.147 17.113 61.232 16.3956 60.2903 15.7965C59.7679 15.4642 59.1223 15.2488 58.5685 14.9673C58.3822 14.8727 58.0549 14.8235 57.9321 14.6656C57.6414 14.2924 57.483 13.8188 57.2586 13.3874C56.7889 12.4767 56.3274 11.4816 55.911 10.5233C55.627 9.86981 55.4413 9.22528 55.0877 8.63891C53.3882 5.8256 51.5584 4.12752 48.7248 2.45883C48.1218 2.10414 47.396 1.96353 46.6285 1.78043L45.3933 1.70502C45.1419 1.59957 44.8804 1.28961 44.6443 1.13942C43.7054 0.541861 41.2975 -0.756466 40.6021 0.947688C40.1631 2.02553 41.2581 3.07716 41.6501 3.62359C41.9249 4.00705 42.2772 4.4362 42.4734 4.86727C42.6025 5.15039 42.6251 5.43447 42.7355 5.73421C43.0075 6.46917 43.2443 7.27539 43.5963 7.95763C43.774 8.30274 43.9701 8.66639 44.1952 8.97508C44.3332 9.16457 44.5697 9.24797 44.6068 9.54068C44.3757 9.86662 44.3624 10.3715 44.2323 10.7844C43.6474 12.6416 43.8679 14.9497 44.7188 16.3244C44.98 16.7462 45.5948 17.6511 46.4406 17.3041C47.1801 17.0005 47.0119 16.0611 47.2268 15.2315C47.2744 15.043 47.2452 14.9056 47.3392 14.7794V14.8171L48.013 16.1736C48.5112 16.982 49.3967 17.8272 50.1464 18.3976C50.5352 18.6932 50.8446 19.2045 51.3442 19.3773V19.3396H51.3068C51.2093 19.1863 51.057 19.1233 50.9322 19.0009C50.6393 18.7117 50.3133 18.3522 50.0712 18.0212C49.3888 17.0887 48.7864 16.0687 48.2373 15.0062C47.9752 14.4991 47.747 13.9396 47.5264 13.4235C47.4414 13.2244 47.4423 12.9237 47.2646 12.8205C47.0224 13.1989 46.6657 13.5044 46.4784 13.9511C46.1788 14.665 46.1401 15.5354 46.0293 16.4385C45.9636 16.4621 45.9928 16.4458 45.9544 16.4762C45.4333 16.3496 45.2498 15.8093 45.0562 15.3456C44.5662 14.1729 44.4754 12.2856 44.9064 10.9365C45.0175 10.5875 45.5221 9.48763 45.3181 9.16521C45.2206 8.84342 44.8991 8.65393 44.7192 8.41107C44.497 8.1075 44.2742 7.70679 44.1203 7.35592C43.7191 6.44201 43.5318 5.41626 43.1097 4.4918C42.9079 4.05019 42.567 3.60346 42.2864 3.21361C41.976 2.77902 41.6285 2.4582 41.3882 1.93541C41.3025 1.74848 41.1864 1.4497 41.3133 1.25701C41.3254 1.20165 41.353 1.15093 41.3929 1.11085C41.4327 1.07076 41.483 1.04297 41.538 1.03077C41.7551 0.862368 42.36 1.08669 42.586 1.1816C43.1859 1.43276 43.6873 1.67179 44.1958 2.01083C44.4402 2.1706 44.6868 2.48887 44.9816 2.57643H45.3181C45.8449 2.6985 46.4352 2.61477 46.9272 2.76496C47.7975 3.03115 48.5769 3.4456 49.2853 3.89553C51.4429 5.26703 53.2066 7.21947 54.4133 9.55154C54.6075 9.92637 54.6913 10.2846 54.8624 10.6821C55.2074 11.481 55.6419 12.3096 55.9853 13.0937C56.3281 13.8766 56.6613 14.6659 57.1456 15.3172C57.4002 15.6591 58.3834 15.8431 58.83 16.033C59.1433 16.1662 59.6561 16.3052 59.9529 16.4851C60.5194 16.8293 61.0685 17.2392 61.6001 17.6163C61.8658 17.8048 62.6824 18.218 62.723 18.5583L62.7221 18.5481Z" fill="#00618A"/>
<path fill-rule="evenodd" clip-rule="evenodd" d="M45.9902 4.19009C45.7157 4.18498 45.5218 4.22013 45.3164 4.26551V4.30321H45.3539C45.4846 4.57419 45.7157 4.74834 45.8775 4.98161L46.2521 5.77282L46.2895 5.73511C46.5212 5.57054 46.6275 5.30755 46.6259 4.90588C46.5329 4.80746 46.5193 4.68411 46.4387 4.56652C46.3317 4.40994 46.1213 4.32111 45.9896 4.18945L45.9902 4.19009Z" fill="#00618A"/>
<path fill-rule="evenodd" clip-rule="evenodd" d="M61.8438 29.4072C61.8438 30.3562 62.5886 30.996 63.4218 30.996C64.2549 30.996 64.9998 30.3562 64.9998 29.4072C64.9998 28.4581 64.2549 27.8184 63.4218 27.8184C62.5886 27.8184 61.8438 28.4581 61.8438 29.4072ZM64.6462 29.4072C64.6462 30.1274 64.0994 30.6655 63.4211 30.6655C62.7356 30.6655 62.196 30.1274 62.196 29.4072C62.196 28.6869 62.735 28.1488 63.4211 28.1488C64.0988 28.1488 64.6462 28.6869 64.6462 29.4072ZM63.8464 30.314H64.1997L63.6823 29.5177C63.9601 29.488 64.1702 29.3522 64.1702 29.0218C64.1702 28.653 63.9385 28.5009 63.4929 28.5009H62.7899V30.3144H63.093V29.5305H63.3748L63.8461 30.3144L63.8464 30.314ZM63.093 29.2755V28.7546H63.4421C63.623 28.7546 63.842 28.7885 63.842 29.0007C63.842 29.2547 63.6443 29.2761 63.4167 29.2761H63.093V29.2755Z" fill="#E48E00"/>
</svg>
