<svg width="34" height="35" viewBox="0 0 34 35" fill="none" xmlns="http://www.w3.org/2000/svg">
<g clip-path="url(#clip0_14_1437)">
<path d="M25.3924 25.4736C25.6169 23.6208 25.5457 23.3476 26.9309 23.6482L27.2813 23.681C28.4026 23.7297 29.5216 23.5435 30.5664 23.1344C32.3238 22.3201 33.3696 20.9483 31.6614 21.3199C27.681 22.1288 27.3744 20.7679 27.3744 20.7679C31.5519 14.5812 33.3039 6.72202 31.7928 4.79823C27.6974 -0.426633 20.5799 2.05463 20.4594 2.12021H20.4211C19.5508 1.94215 18.665 1.85061 17.7767 1.84695C16.2821 1.77109 14.807 2.21111 13.5992 3.09304C13.5992 3.09304 0.902587 -2.11542 1.48842 9.67331C1.64172 12.1819 5.09099 28.6653 9.2356 23.6755C10.7577 21.8555 12.2195 20.3143 12.2195 20.3143C12.9582 20.8104 13.846 21.0363 14.7325 20.9538L14.8037 20.8936C14.78 21.1306 14.7892 21.3697 14.8311 21.6041C13.7635 22.7956 14.0755 23.0033 11.9403 23.4405C9.805 23.8777 11.0533 24.6756 11.88 24.8833C12.882 25.1347 15.2089 25.49 16.8076 23.2984L16.7419 23.5443C17.1635 23.8832 17.1361 25.9491 17.1963 27.4302C17.187 28.6693 17.3416 29.9042 17.6562 31.1029C17.9573 31.9172 18.3132 34.0104 21.1219 33.4256C23.4652 32.9228 25.2556 32.2014 25.4198 25.4845" fill="black"/>
<path d="M20.1643 34.9778C18.3028 34.9778 17.0106 33.9175 16.3317 31.8134C16.3044 31.7314 16.2825 31.6549 16.2551 31.5893C15.8739 30.2493 15.6895 28.8612 15.7076 27.4684C15.7076 27.2006 15.7076 26.9219 15.6802 26.6213C15.6802 26.4519 15.6802 26.2497 15.6802 26.042C14.3687 26.5835 12.9132 26.6701 11.5466 26.2879C10.8526 26.1363 10.222 25.7757 9.73979 25.255C9.34716 25.6197 8.86362 25.8724 8.33969 25.9868C7.81577 26.1012 7.27068 26.0731 6.76137 25.9053C2.25541 24.4406 0.0818207 10.8975 -0.000304947 9.74435C-0.164556 6.01153 0.842851 3.37724 3.01097 1.84694C6.39454 -0.546875 11.4973 0.824924 13.4026 1.46983C14.7328 0.707143 16.2493 0.328692 17.7826 0.376767C18.6232 0.383822 19.4618 0.458759 20.2902 0.600845C22.3707 -0.0823213 28.9189 -1.23551 32.9485 3.90737C35.0564 6.59085 32.9211 14.368 29.543 20.0957C30.1416 20.0702 30.737 19.9934 31.3224 19.8661C33.2441 19.4672 33.7752 20.5985 33.8957 20.9592C34.4925 22.7573 31.9575 24.0909 31.1582 24.457C29.9077 24.9617 28.5638 25.1946 27.2161 25.1402H26.915C26.915 25.2003 26.915 25.2604 26.915 25.3206V25.5556C26.7398 32.4473 24.8619 34.1471 21.44 34.8794C21.0191 34.9551 20.5917 34.9881 20.1643 34.9778ZM18.2809 23.364C18.5358 24.4099 18.6481 25.4853 18.6148 26.5612C18.6148 26.8399 18.6148 27.1077 18.6148 27.3701C18.6261 28.4598 18.7584 29.5449 19.009 30.6055C19.0419 30.7039 19.0802 30.8187 19.124 30.9389C19.4306 31.879 19.5565 32.267 20.7665 32.032C22.5021 31.6603 23.7559 31.3925 23.9037 25.4736L25.497 25.5118L23.9092 25.3206L23.9475 24.9817C24.0789 23.8886 24.1775 23.0251 24.9604 22.4676C25.4052 22.1677 25.9449 22.0413 26.477 22.1124C26.2053 21.8382 26.0157 21.4937 25.9295 21.1177L25.7981 20.5111L26.1485 19.9645C30.3314 13.8051 31.4648 6.79307 30.6599 5.72733C27.3749 1.55728 21.7082 3.27886 21.0676 3.46468L20.9581 3.5248L20.4106 3.61771L20.0931 3.56852C19.3166 3.40901 18.5261 3.32663 17.7334 3.32258C16.5615 3.25423 15.4017 3.58997 14.4483 4.27355L13.7749 4.78183L12.9974 4.46484C11.4973 3.82539 7.04607 2.59023 4.70275 4.24622C3.41612 5.15893 2.82482 6.97889 2.96169 9.60225C3.12594 12.9142 5.95106 22.7901 7.67023 23.1453C7.83819 23.0364 7.98631 22.8996 8.10823 22.7409C9.63577 20.8991 11.0921 19.3688 11.1524 19.3032L12.0065 18.4069L13.0358 19.0955C13.3764 19.3256 13.7703 19.4649 14.1801 19.5L16.5836 17.4887L16.266 21.0467C16.2495 21.1553 16.2495 21.2659 16.266 21.3746V21.4675L20.0986 16.1497L18.2809 23.364Z" fill="black"/>
<path d="M31.623 21.315C27.6646 22.1293 27.3799 20.7685 27.3799 20.7685C31.5573 14.5817 33.3039 6.72255 31.7982 4.80421C27.6865 -0.409715 20.5689 2.07155 20.4485 2.13713H20.4101C19.5413 1.96186 18.6576 1.87035 17.7712 1.86386C16.2747 1.79278 14.7988 2.23437 13.5882 3.11542C13.5882 3.11542 0.891617 -2.10397 1.48292 9.68476C1.60885 12.1933 5.08002 28.6768 9.2301 23.6869C10.7576 21.8561 12.2195 20.3148 12.2195 20.3148C12.9582 20.8109 13.846 21.0368 14.7325 20.9543L14.8037 20.8942C14.78 21.1311 14.7892 21.3702 14.8311 21.6047C13.7634 22.7961 14.0755 23.0038 11.9402 23.441C9.80498 23.8782 11.0533 24.6762 11.88 24.8839C12.882 25.1353 15.2088 25.4905 16.8076 23.2989L16.7419 23.5448C17.1634 23.8837 17.4536 25.731 17.4043 27.3706C17.3551 29.0102 17.3222 30.1852 17.6507 31.0815C17.9792 31.9779 18.3077 33.9946 21.1164 33.4043C23.4597 32.9015 24.6752 31.6007 24.8449 29.4365C24.9654 27.8953 25.2391 28.1193 25.2555 26.7421L25.4745 26.0917C25.7264 23.9985 25.5183 23.3262 26.9583 23.6378L27.3142 23.6705C28.4355 23.7205 29.5547 23.5342 30.5992 23.124C32.3567 22.3097 33.4024 20.9379 31.6668 21.3041L31.623 21.315Z" fill="#336791"/>
<path d="M20.3232 34.0663C17.9634 34.0663 17.2079 32.2027 16.9013 31.443C16.4523 30.3499 16.3538 26.1525 16.4578 22.5017C16.4662 22.3717 16.5243 22.2499 16.6201 22.1614C16.7158 22.0729 16.842 22.0245 16.9725 22.0262C17.0369 22.0276 17.1005 22.0418 17.1594 22.0679C17.2184 22.094 17.2715 22.1315 17.3158 22.1783C17.3601 22.2251 17.3947 22.2802 17.4175 22.3404C17.4404 22.4006 17.451 22.4647 17.4488 22.529C17.3338 26.5898 17.4926 30.2679 17.8211 31.0768C18.1496 31.8857 18.8066 33.5034 21.2704 32.9787C23.3618 32.5361 24.1064 31.7818 24.4568 29.7597L25.3109 22.9553C25.3269 22.827 25.3933 22.7104 25.4955 22.6309C25.5976 22.5515 25.7272 22.5158 25.8557 22.5318C25.9842 22.5477 26.1011 22.614 26.1807 22.7159C26.2603 22.8179 26.296 22.9473 26.28 23.0756L25.415 29.9018C24.9989 32.3229 23.9312 33.4105 21.462 33.9352C21.0884 34.0207 20.7065 34.0647 20.3232 34.0663ZM7.63205 25.0485C7.42368 25.0488 7.21664 25.0156 7.01884 24.9502C5.49131 24.4419 4.03495 21.9606 2.69356 17.5774C1.88065 14.9919 1.30702 12.3374 0.979872 9.64724C0.810146 6.29152 1.6752 3.9141 3.55862 2.58602C7.27069 -0.0373366 13.5068 2.46032 13.7696 2.58602C13.8345 2.60653 13.8945 2.64026 13.9458 2.68509C13.997 2.72991 14.0384 2.78486 14.0673 2.84645C14.0961 2.90805 14.1119 2.97495 14.1136 3.04294C14.1153 3.11093 14.1028 3.17853 14.077 3.24147C14.0511 3.3044 14.0125 3.36131 13.9635 3.40859C13.9146 3.45587 13.8563 3.4925 13.7924 3.51616C13.7286 3.53982 13.6605 3.55 13.5924 3.54607C13.5244 3.54213 13.458 3.52415 13.3973 3.49327C13.337 3.49327 7.37472 1.09399 4.12255 3.40582C2.53478 4.53168 1.8066 6.61944 1.93253 9.61991C2.26994 12.2232 2.83979 14.7912 3.63527 17.2932C4.82335 21.1846 6.17021 23.633 7.33092 24.0211C7.50612 24.0812 8.04815 24.2615 8.83656 23.316C10.3422 21.5015 11.7274 20.0368 11.7438 20.0368C11.7891 19.9916 11.8428 19.9556 11.902 19.9311C11.9612 19.9066 12.0247 19.894 12.0887 19.894C12.1528 19.894 12.2163 19.9066 12.2754 19.9311C12.3346 19.9556 12.3884 19.9916 12.4337 20.0368C12.5256 20.129 12.5772 20.2538 12.5772 20.3839C12.5772 20.514 12.5256 20.6388 12.4337 20.7309C12.4337 20.7309 11.0594 22.1628 9.57569 23.95C9.3555 24.2674 9.06634 24.5311 8.72979 24.7213C8.39323 24.9115 8.01798 25.0234 7.63205 25.0485ZM27.3422 21.2228C27.244 21.2232 27.1482 21.1926 27.0684 21.1354C27.0151 21.0996 26.9693 21.0537 26.9338 21.0002C26.8982 20.9468 26.8737 20.8868 26.8614 20.8238C26.8492 20.7608 26.8496 20.696 26.8626 20.6332C26.8756 20.5704 26.9009 20.5107 26.937 20.4577C31.1747 14.2108 32.6585 6.69049 31.3937 5.07822C27.6269 0.268722 21.243 2.30729 20.6681 2.50951H20.5915C20.4762 2.54686 20.3512 2.54145 20.2396 2.49427C20.128 2.44708 20.0371 2.36129 19.9837 2.25264C19.9359 2.14476 19.9289 2.0232 19.9642 1.91059C19.9994 1.79798 20.0745 1.702 20.1754 1.64052H20.3013C20.3229 1.6356 20.3454 1.6356 20.367 1.64052C21.5824 1.24702 28.2018 -0.545612 32.1712 4.52075C33.9725 6.82166 31.7496 15.1727 27.7911 21.0643C27.7408 21.1242 27.6766 21.1709 27.6041 21.2004C27.5316 21.2299 27.453 21.2414 27.375 21.2337L27.3422 21.2228Z" fill="white"/>
<path d="M27.595 24.1237C26.9848 24.1587 26.3753 24.0423 25.8211 23.7849C25.6795 23.7118 25.5593 23.6035 25.472 23.4704C25.3847 23.3373 25.3334 23.1839 25.3229 23.0252C25.2134 21.1451 26.2208 20.7735 26.7792 20.615C26.7081 20.5111 26.615 20.3964 26.5164 20.2761C26.0662 19.7569 25.697 19.1728 25.4214 18.5436C25.3721 18.4234 25.2134 18.1337 25.0272 17.7949C24.0198 15.9695 21.901 12.1656 23.2697 10.209C23.8994 9.30721 25.1422 8.9465 26.9709 9.11592C26.3905 7.43807 23.7734 2.38263 17.7618 2.28972C16.939 2.24327 16.1156 2.36902 15.3443 2.65891C14.5731 2.94879 13.871 3.39641 13.2833 3.97305C10.7538 6.51989 10.8359 11.1545 10.8359 11.1982C10.8269 11.3197 10.7731 11.4335 10.6849 11.5177C10.5966 11.6018 10.4802 11.6502 10.3583 11.6536C10.2363 11.657 10.1174 11.6151 10.0246 11.5361C9.93177 11.457 9.87166 11.3463 9.85588 11.2255C9.85588 11.0179 9.75733 6.13732 12.5934 3.28441C13.2723 2.61476 14.0834 2.09351 14.9751 1.75384C15.8668 1.41416 16.8196 1.2635 17.7728 1.31143C25.3064 1.4262 27.9892 8.57486 28.0768 9.50943C28.108 9.64997 28.0823 9.7971 28.0054 9.91887C27.9285 10.0406 27.8066 10.1272 27.6662 10.1598H27.491C26.281 9.99038 24.6385 9.93026 24.091 10.7719C23.0726 12.2257 25.0655 15.7946 25.9197 17.3303C26.0837 17.6067 26.2336 17.8913 26.3686 18.1829C26.5972 18.723 26.9054 19.2259 27.2829 19.6749C27.5456 19.9497 27.7422 20.2805 27.8578 20.6423C27.9837 20.7953 28.6681 21.3801 31.5097 20.7953C32.32 20.6259 32.8018 20.7953 32.9551 21.2271C33.2453 22.107 31.6411 23.1181 30.7651 23.5335C29.7572 23.9352 28.6802 24.1357 27.595 24.1237ZM26.281 22.9542C26.6533 23.293 29.0185 23.2602 30.3216 22.659C30.8457 22.4288 31.3298 22.117 31.756 21.7354C29.7358 22.1507 28.3068 22.0961 27.5019 21.566L27.3651 21.4676L27.1734 21.5277C26.6697 21.6589 26.2427 21.7791 26.281 22.9542Z" fill="white"/>
<path d="M13.2987 25.518C12.7706 25.5126 12.245 25.4447 11.7328 25.3158C11.5795 25.272 10.2108 24.9059 10.2327 24.0369C10.2546 23.1679 11.3879 23.0039 11.815 22.9438C13.3261 22.6323 13.4192 22.5121 13.89 21.9163C14.0324 21.736 14.2021 21.5174 14.4375 21.2605L14.4813 21.2168C14.6811 20.9428 14.971 20.7478 15.3004 20.6659C15.6297 20.5839 15.9774 20.6203 16.2826 20.7686C16.5486 20.8904 16.7845 21.0691 16.9738 21.292C17.163 21.5149 17.3008 21.7765 17.3776 22.0584C17.4593 22.2998 17.4836 22.5569 17.4484 22.8092C17.4132 23.0616 17.3196 23.3023 17.175 23.5122C16.7478 24.1427 16.1693 24.6566 15.4922 25.0069C14.8152 25.3572 14.0611 25.5329 13.2987 25.518ZM11.3167 24.0806C11.5175 24.2128 11.7398 24.309 11.9737 24.3648C13.2823 24.6927 15.1 24.7146 16.3538 22.9657C16.4105 22.8754 16.4464 22.7736 16.4587 22.6677C16.471 22.5618 16.4595 22.4544 16.425 22.3536C16.3911 22.2146 16.3282 22.0844 16.2404 21.9714C16.1527 21.8584 16.0421 21.7651 15.9158 21.6977C15.6475 21.5884 15.5051 21.5283 15.1821 21.8835L15.1438 21.9218C14.9467 22.1459 14.7989 22.3372 14.6729 22.4683C14.0707 23.228 13.7969 23.4849 12.023 23.8456C11.7795 23.8973 11.5426 23.9761 11.3167 24.0806Z" fill="white"/>
<path d="M14.7325 22.0243C14.6154 22.0254 14.5018 21.9839 14.4131 21.9074C14.3244 21.831 14.2667 21.7249 14.2507 21.609C14.2454 21.5435 14.2454 21.4777 14.2507 21.4122C13.0699 21.3705 11.9537 20.8635 11.1464 20.0022C10.6109 19.4413 10.2112 18.7655 9.97772 18.0266C9.74426 17.2877 9.68331 16.5053 9.79953 15.7392C9.9556 14.3946 9.97394 13.0377 9.85428 11.6894C9.85428 11.4762 9.85428 11.3123 9.85428 11.2084C9.85428 10.4105 12.1264 9.42128 13.4952 9.27372C15.1651 9.09883 16.271 9.82025 16.5995 11.356C17.4755 15.4058 16.6707 17.1985 16.0794 18.5047C15.9699 18.7451 15.8713 18.9692 15.7837 19.1988L15.7071 19.401C15.3922 20.0429 15.2239 20.7467 15.2143 21.4614C15.2317 21.5873 15.199 21.7149 15.1233 21.8171C15.0476 21.9192 14.9349 21.9877 14.8092 22.0079L14.7325 22.0243ZM10.8398 11.3505C10.8398 11.4271 10.8398 11.52 10.8398 11.6293C10.9481 13.0448 10.9114 14.4677 10.7303 15.8758C10.6371 16.4968 10.6874 17.1308 10.8771 17.7295C11.0669 18.3281 11.3912 18.8755 11.8253 19.3299C12.1466 19.6716 12.5341 19.9446 12.9641 20.1324C13.3942 20.3203 13.858 20.4192 14.3274 20.423C14.4527 19.9611 14.6044 19.5067 14.7818 19.0621L14.8585 18.8544C14.9515 18.6085 15.061 18.3626 15.1815 18.1057C15.729 16.8541 16.4462 15.2965 15.6359 11.5473C15.6021 11.241 15.473 10.9529 15.2668 10.7236C15.0606 10.4942 14.7876 10.335 14.4862 10.2684C13.1393 9.97328 11.2504 10.9844 10.8398 11.3505Z" fill="white"/>
<path d="M13.5407 11.1385C13.5133 11.3024 13.8309 11.7287 14.247 11.7834C14.4074 11.8054 14.5705 11.7746 14.7118 11.6957C14.8531 11.6168 14.9648 11.4941 15.0299 11.3462C15.0573 11.1877 14.7397 11.0128 14.3236 10.9527C13.9075 10.8925 13.5571 10.98 13.5407 11.1385Z" fill="white"/>
<path d="M14.3386 11.9584H14.2182C13.9378 11.9059 13.6875 11.7498 13.5174 11.5212C13.4243 11.4113 13.3737 11.2717 13.375 11.1277C13.3805 11.087 13.3945 11.0479 13.4162 11.0131C13.4379 10.9782 13.4668 10.9484 13.5009 10.9255C13.7584 10.7857 14.0577 10.743 14.3441 10.8052C14.6379 10.823 14.9156 10.9451 15.127 11.1496C15.1769 11.2173 15.2003 11.3009 15.1927 11.3846C15.1265 11.5561 15.009 11.7032 14.8563 11.8058C14.7035 11.9085 14.5228 11.9618 14.3386 11.9584ZM13.6871 11.1714C13.736 11.2848 13.8111 11.3851 13.9062 11.4639C14.0014 11.5428 14.1139 11.598 14.2346 11.625C14.3532 11.637 14.4728 11.6151 14.5794 11.5619C14.686 11.5087 14.7753 11.4263 14.8369 11.3245C14.6766 11.2069 14.4874 11.1351 14.2894 11.1168C14.088 11.0696 13.8767 11.0888 13.6871 11.1714Z" fill="white"/>
<path d="M26.0826 10.816C26.0826 10.9745 25.7869 11.4008 25.3763 11.4609C25.2155 11.4806 25.0525 11.4489 24.9109 11.3703C24.7692 11.2918 24.6561 11.1704 24.5879 11.0237C24.5879 10.8597 24.8835 10.6848 25.2942 10.6302C25.7048 10.5755 26.0607 10.6575 26.0826 10.816Z" fill="white"/>
<path d="M25.279 11.5489C25.0802 11.5477 24.8875 11.4804 24.7315 11.3576C24.6151 11.2835 24.531 11.1684 24.496 11.0351C24.4632 10.7892 24.8629 10.6033 25.2735 10.5487C25.5387 10.4932 25.8149 10.5298 26.0564 10.6525C26.0821 10.6698 26.1038 10.6924 26.1198 10.7188C26.1359 10.7452 26.146 10.7748 26.1495 10.8056C26.1823 11.0296 25.81 11.4778 25.3775 11.5379L25.279 11.5489ZM25.5472 10.6908H25.3063C24.9067 10.7509 24.6603 10.9149 24.6658 10.9969C24.7023 11.0848 24.763 11.1606 24.841 11.2155C24.9973 11.3338 25.1937 11.3867 25.3885 11.363C25.5345 11.3376 25.671 11.2735 25.7837 11.1773C25.8964 11.0812 25.9812 10.9566 26.029 10.8165C26.0213 10.7998 26.0101 10.7849 25.9962 10.7728C25.8584 10.7006 25.7018 10.672 25.5472 10.6908Z" fill="white"/>
<path d="M26.6734 20.0421C26.5752 20.0425 26.4794 20.0119 26.3997 19.9546C26.2948 19.8798 26.2235 19.767 26.2009 19.6403C26.1784 19.5136 26.2065 19.3832 26.2792 19.2769C27.2374 17.8505 27.0622 16.3912 26.8924 14.9757C26.7978 14.3608 26.7502 13.7396 26.7501 13.1175C26.7714 12.5676 26.8299 12.0199 26.9253 11.4779C27.0361 10.8908 27.082 10.2933 27.0622 9.69619C27.0577 9.63169 27.0663 9.56695 27.0875 9.50585C27.1087 9.44475 27.142 9.38854 27.1855 9.34058C27.2289 9.29262 27.2816 9.2539 27.3404 9.22673C27.3991 9.19956 27.4628 9.1845 27.5275 9.18245C27.5916 9.17876 27.6557 9.18772 27.7162 9.20881C27.7767 9.2299 27.8325 9.26271 27.8803 9.30536C27.9281 9.34801 27.9671 9.39966 27.9948 9.45735C28.0226 9.51503 28.0387 9.57763 28.0422 9.64154C28.0758 10.3198 28.0354 10.9997 27.9217 11.6692C27.8327 12.166 27.776 12.668 27.752 13.1721C27.7528 13.7374 27.7949 14.3018 27.8779 14.8609C28.0586 16.3748 28.2667 18.0909 27.106 19.8235C27.0597 19.8948 26.9952 19.9526 26.9193 19.991C26.8433 20.0294 26.7585 20.047 26.6734 20.0421Z" fill="white"/>
</g>
<defs>
<clipPath id="clip0_14_1437">
<rect width="34" height="35" fill="white"/>
</clipPath>
</defs>
</svg>
